<svg width="121" height="29" viewBox="0 0 121 29" fill="none" xmlns="http://www.w3.org/2000/svg">
<path d="M66.3624 21.2591H61.1302C60.843 21.2591 60.6172 21.0358 60.6172 20.7516V7.55555C60.6172 7.27133 60.843 7.04801 61.1302 7.04801H65.8289C68.7631 7.04801 70.343 8.26611 70.343 10.7429V11.4535C70.343 12.4279 69.9121 13.5648 68.9067 14.1333C69.9326 14.5596 70.6918 15.6965 70.6918 16.9958V17.747C70.6918 19.7568 69.317 21.2591 66.3624 21.2591ZM62.7512 8.87516V13.4227H66.3419C67.4704 13.4227 68.2091 12.7731 68.2091 11.2504V11.0271C68.2091 9.403 67.4704 8.87516 65.87 8.87516H62.7512ZM62.7512 15.128V19.4523H66.3214C67.8808 19.4523 68.5374 18.6402 68.5374 17.5033V17.1988C68.5374 15.9401 67.8397 15.128 66.5471 15.128H62.7512ZM82.7302 21.2591C83.0175 21.2591 83.2637 21.0358 83.2637 20.7516V19.9598C83.2637 19.6756 83.0175 19.4523 82.7302 19.4523H76.6978V7.55555C76.6978 7.27133 76.4721 7.04801 76.1849 7.04801H75.0769C74.7896 7.04801 74.5639 7.27133 74.5639 7.55555V20.7516C74.5639 21.0358 74.7896 21.2591 75.0769 21.2591H82.7302ZM90.9728 21.5434C88.0797 21.5434 85.7406 19.8177 85.7406 17.0364V11.2707C85.7406 8.46912 88.0797 6.76379 90.9728 6.76379C93.8864 6.76379 96.2255 8.46912 96.2255 11.2707V17.0364C96.2255 19.8177 93.8864 21.5434 90.9728 21.5434ZM90.9728 8.59093C89.2697 8.59093 87.895 9.60601 87.895 11.555V16.7522C87.895 18.7011 89.2697 19.7162 90.9728 19.7162C92.6963 19.7162 94.0711 18.7011 94.0711 16.7522V11.555C94.0711 9.60601 92.6963 8.59093 90.9728 8.59093ZM104.283 21.2591C104.571 21.2591 104.796 21.0358 104.796 20.7516V8.85485H108.284C108.572 8.85485 108.818 8.63154 108.818 8.34731V7.55555C108.818 7.27133 108.572 7.04801 108.284 7.04801H99.1743C98.887 7.04801 98.6408 7.27133 98.6408 7.55555V8.34731C98.6408 8.63154 98.887 8.85485 99.1743 8.85485H102.662V20.7516C102.662 21.0358 102.888 21.2591 103.175 21.2591H104.283ZM26.5332 0C30.7722 0 34.5943 1.75116 37.2891 4.5564L38.6243 3.29545H41.983L44.1661 4.94318L40.1305 8.81107C40.8906 10.5578 41.3112 12.4807 41.3112 14.5C41.3112 22.5081 34.6949 29 26.5332 29C22.4467 29 18.7476 27.3725 16.0724 24.7421L14.4421 26.1989H11.2514L9.40418 24.2216L13.1281 20.6116C12.2471 18.7543 11.7552 16.6835 11.7552 14.5C11.7552 6.49187 18.3716 0 26.5332 0ZM35.5111 13.2383L29.7239 18.7841H27.7088L26.0294 17.7955H23.8463L20.301 20.9635C21.9259 22.4724 24.1194 23.3977 26.5332 23.3977C31.5415 23.3977 35.6016 19.4141 35.6016 14.5C35.6016 14.0717 35.5707 13.6504 35.5111 13.2383ZM120.467 7.04801C120.754 7.04801 121 7.27133 121 7.55555V8.34731C121 8.63154 120.754 8.85485 120.467 8.85485H116.978V20.7516C116.978 21.0358 116.753 21.2591 116.465 21.2591H115.357C115.07 21.2591 114.844 21.0358 114.844 20.7516V8.85485H111.356C111.069 8.85485 110.823 8.63154 110.823 8.34731V7.55555C110.823 7.27133 111.069 7.04801 111.356 7.04801H120.467ZM6.74414 6.94293C6.93223 6.78475 7.25466 6.94293 7.25466 7.18021V9.02566C7.25466 9.44748 7.0397 9.8693 6.74414 10.1329L2.5257 13.9029L6.71728 17.6729C7.0397 17.9366 7.25466 18.3584 7.25466 18.7802V20.6257C7.25466 20.8629 6.93223 21.0211 6.74414 20.8629L0.510513 15.3002C0.214953 15.0629 0 14.6148 0 14.2193V13.6129C0 13.2175 0.214953 12.7693 0.510513 12.5057L6.74414 6.94293ZM45.4802 7.18021C45.4802 6.94293 45.8026 6.78475 45.9907 6.94293L52.2243 12.5057C52.5199 12.7693 52.7348 13.2175 52.7348 13.6129V14.2193C52.7348 14.6148 52.5199 15.0629 52.2243 15.3002L45.9907 20.8629C45.8026 21.0211 45.4802 20.8629 45.4802 20.6257V18.7802C45.4802 18.3584 45.6951 17.9366 46.0175 17.6729L50.2091 13.9029L45.9907 10.1329C45.6951 9.8693 45.4802 9.44748 45.4802 9.02566V7.18021ZM26.5332 5.60227C21.5249 5.60227 17.4649 9.58592 17.4649 14.5C17.4649 15.0954 17.5245 15.6771 17.6382 16.2397L23.3425 10.7102H26.0294L27.7088 11.6989H29.7239L33.1742 8.44097C31.5184 6.69465 29.1559 5.60227 26.5332 5.60227Z" fill="white"/>
</svg>
